<svg width="598" height="89" viewBox="0 0 598 89" fill="none" xmlns="http://www.w3.org/2000/svg">
<path d="M137.88 11C142.84 11 147.133 11.8267 150.76 13.48C154.44 15.1333 157.267 17.48 159.24 20.52C161.213 23.56 162.2 27.16 162.2 31.32C162.2 35.4267 161.213 39.0267 159.24 42.12C157.267 45.16 154.44 47.5067 150.76 49.16C147.133 50.76 142.84 51.56 137.88 51.56H126.6V67H113.64V11H137.88ZM137.16 41C141.053 41 144.013 40.1733 146.04 38.52C148.067 36.8133 149.08 34.4133 149.08 31.32C149.08 28.1733 148.067 25.7733 146.04 24.12C144.013 22.4133 141.053 21.56 137.16 21.56H126.6V41H137.16ZM180.092 29.64C181.586 27.56 183.586 25.9867 186.092 24.92C188.652 23.8533 191.586 23.32 194.892 23.32V34.84C193.506 34.7333 192.573 34.68 192.093 34.68C188.519 34.68 185.719 35.6933 183.692 37.72C181.666 39.6933 180.652 42.68 180.652 46.68V67H168.172V23.96H180.092V29.64ZM221.202 57.64C223.442 57.64 225.416 57.32 227.122 56.68C228.882 55.9867 230.509 54.92 232.002 53.48L238.643 60.68C234.589 65.32 228.669 67.64 220.882 67.64C216.029 67.64 211.736 66.7067 208.002 64.84C204.269 62.92 201.389 60.28 199.362 56.92C197.336 53.56 196.322 49.7467 196.322 45.48C196.322 41.2667 197.309 37.48 199.282 34.12C201.309 30.7067 204.056 28.0667 207.522 26.2C211.042 24.28 214.989 23.32 219.362 23.32C223.469 23.32 227.202 24.2 230.562 25.96C233.922 27.6667 236.589 30.1733 238.562 33.48C240.589 36.7333 241.603 40.6 241.603 45.08L209.762 51.24C210.669 53.3733 212.082 54.9733 214.002 56.04C215.976 57.1067 218.376 57.64 221.202 57.64ZM219.362 32.76C216.216 32.76 213.656 33.7733 211.682 35.8C209.709 37.8267 208.669 40.6267 208.562 44.2L229.522 40.12C228.936 37.88 227.736 36.0933 225.922 34.76C224.109 33.4267 221.922 32.76 219.362 32.76ZM273.031 23.32C277.031 23.32 280.658 24.2533 283.911 26.12C287.218 27.9333 289.805 30.52 291.671 33.88C293.538 37.1867 294.471 41.0533 294.471 45.48C294.471 49.9067 293.538 53.8 291.671 57.16C289.805 60.4667 287.218 63.0533 283.911 64.92C280.658 66.7333 277.031 67.64 273.031 67.64C267.538 67.64 263.218 65.9067 260.071 62.44V82.52H247.591V23.96H259.511V28.92C262.605 25.1867 267.111 23.32 273.031 23.32ZM270.871 57.4C274.071 57.4 276.685 56.3333 278.711 54.2C280.791 52.0133 281.831 49.1067 281.831 45.48C281.831 41.8533 280.791 38.9733 278.711 36.84C276.685 34.6533 274.071 33.56 270.871 33.56C267.671 33.56 265.031 34.6533 262.951 36.84C260.925 38.9733 259.911 41.8533 259.911 45.48C259.911 49.1067 260.925 52.0133 262.951 54.2C265.031 56.3333 267.671 57.4 270.871 57.4ZM301.306 11H314.266V56.44H342.346V67H301.306V11ZM366.474 67.64C361.941 67.64 357.861 66.7067 354.234 64.84C350.661 62.92 347.861 60.28 345.834 56.92C343.808 53.56 342.794 49.7467 342.794 45.48C342.794 41.2133 343.808 37.4 345.834 34.04C347.861 30.68 350.661 28.0667 354.234 26.2C357.861 24.28 361.941 23.32 366.474 23.32C371.008 23.32 375.061 24.28 378.634 26.2C382.208 28.0667 385.008 30.68 387.034 34.04C389.061 37.4 390.074 41.2133 390.074 45.48C390.074 49.7467 389.061 53.56 387.034 56.92C385.008 60.28 382.208 62.92 378.634 64.84C375.061 66.7067 371.008 67.64 366.474 67.64ZM366.474 57.4C369.674 57.4 372.288 56.3333 374.314 54.2C376.394 52.0133 377.434 49.1067 377.434 45.48C377.434 41.8533 376.394 38.9733 374.314 36.84C372.288 34.6533 369.674 33.56 366.474 33.56C363.274 33.56 360.634 34.6533 358.554 36.84C356.474 38.9733 355.434 41.8533 355.434 45.48C355.434 49.1067 356.474 52.0133 358.554 54.2C360.634 56.3333 363.274 57.4 366.474 57.4ZM439.376 23.96V67H427.536V61.88C425.883 63.7467 423.91 65.1867 421.616 66.2C419.323 67.16 416.843 67.64 414.176 67.64C408.523 67.64 404.043 66.0133 400.736 62.76C397.43 59.5067 395.776 54.68 395.776 48.28V23.96H408.256V46.44C408.256 53.3733 411.163 56.84 416.976 56.84C419.963 56.84 422.363 55.88 424.176 53.96C425.99 51.9867 426.896 49.08 426.896 45.24V23.96H439.376ZM474.698 23.32C480.031 23.32 484.325 24.92 487.578 28.12C490.885 31.32 492.538 36.0667 492.538 42.36V67H480.058V44.28C480.058 40.8667 479.311 38.3333 477.818 36.68C476.325 34.9733 474.165 34.12 471.338 34.12C468.191 34.12 465.685 35.1067 463.818 37.08C461.951 39 461.018 41.88 461.018 45.72V67H448.538V23.96H460.458V29C462.111 27.1867 464.165 25.8 466.618 24.84C469.071 23.8267 471.765 23.32 474.698 23.32ZM546.319 23.96V59.8C546.319 67.6933 544.266 73.56 540.159 77.4C536.053 81.24 530.053 83.16 522.159 83.16C517.999 83.16 514.053 82.6533 510.319 81.64C506.586 80.6267 503.493 79.16 501.039 77.24L505.999 68.28C507.813 69.7733 510.106 70.9467 512.879 71.8C515.653 72.7067 518.426 73.16 521.199 73.16C525.519 73.16 528.693 72.1733 530.719 70.2C532.799 68.28 533.839 65.3467 533.839 61.4V59.56C530.586 63.1333 526.053 64.92 520.239 64.92C516.293 64.92 512.666 64.0667 509.359 62.36C506.106 60.6 503.519 58.1467 501.599 55C499.679 51.8533 498.719 48.2267 498.719 44.12C498.719 40.0133 499.679 36.3867 501.599 33.24C503.519 30.0933 506.106 27.6667 509.359 25.96C512.666 24.2 516.293 23.32 520.239 23.32C526.479 23.32 531.226 25.3733 534.479 29.48V23.96H546.319ZM522.719 54.68C526.026 54.68 528.719 53.72 530.799 51.8C532.933 49.8267 533.999 47.2667 533.999 44.12C533.999 40.9733 532.933 38.44 530.799 36.52C528.719 34.5467 526.026 33.56 522.719 33.56C519.413 33.56 516.693 34.5467 514.559 36.52C512.426 38.44 511.359 40.9733 511.359 44.12C511.359 47.2667 512.426 49.8267 514.559 51.8C516.693 53.72 519.413 54.68 522.719 54.68ZM577.215 57.64C579.455 57.64 581.428 57.32 583.135 56.68C584.895 55.9867 586.522 54.92 588.015 53.48L594.655 60.68C590.602 65.32 584.682 67.64 576.895 67.64C572.042 67.64 567.748 66.7067 564.015 64.84C560.282 62.92 557.402 60.28 555.375 56.92C553.348 53.56 552.335 49.7467 552.335 45.48C552.335 41.2667 553.322 37.48 555.295 34.12C557.322 30.7067 560.068 28.0667 563.535 26.2C567.055 24.28 571.002 23.32 575.375 23.32C579.482 23.32 583.215 24.2 586.575 25.96C589.935 27.6667 592.602 30.1733 594.575 33.48C596.602 36.7333 597.615 40.6 597.615 45.08L565.775 51.24C566.682 53.3733 568.095 54.9733 570.015 56.04C571.988 57.1067 574.388 57.64 577.215 57.64ZM575.375 32.76C572.228 32.76 569.668 33.7733 567.695 35.8C565.722 37.8267 564.682 40.6267 564.575 44.2L585.535 40.12C584.948 37.88 583.748 36.0933 581.935 34.76C580.122 33.4267 577.935 32.76 575.375 32.76Z" fill="#082F49"/>
<path d="M76.4615 3H11.5385C5.22836 3 0 8.19265 0 14.4596V66.028C0 72.4741 5.22836 77.4877 11.5385 77.4877H42.5216L59.1082 88.4067C60.0096 89.1229 61.0913 89.1229 62.1731 88.7648C63.0745 88.2276 63.6154 87.3323 63.6154 86.0789V77.4877H76.4615C82.9519 77.4877 88 72.4741 88 66.028V14.4596C88 8.19265 82.9519 3 76.4615 3Z" fill="#082F49"/>
<path d="M40.5232 20.2811C41.1597 20.1224 41.8358 20.1224 42.4521 20.2216L66.8077 22.6626C67.5831 22.7222 68.3181 23.2976 68.516 24.0911C68.7337 24.9641 68.3548 25.8172 67.6981 26.2338L47.3394 39.8234C46.8418 40.2003 46.2251 40.4384 45.509 40.6169C44.8725 40.7756 44.2162 40.8549 43.5999 40.7557L29.7223 39.3268C30.2603 38.4341 30.997 37.6603 31.8528 37.0255L43.1174 28.9908C43.7741 28.5742 43.9142 27.7806 43.4179 27.1457C43.0209 26.5703 42.2257 26.4314 41.6486 26.8282L30.384 34.8629C28.951 35.8945 27.8359 37.1841 27.1182 38.7117C26.2207 40.8742 25.9791 43.2947 26.5727 45.6754L27.0673 47.6594C27.8019 48.5721 28.417 49.6831 28.9327 50.7346C29.9443 52.7583 31.1138 55.7541 31.2485 59.3451C31.2481 59.6824 31.1681 60.0395 30.8895 60.2776C30.6108 60.5156 30.3123 60.6744 29.9743 60.6743L24.5657 60.6742C24.0685 60.7138 23.6711 60.4757 23.4131 60.1186C23.2346 59.7417 23.1954 59.2457 23.355 58.8687C23.754 57.7577 24.1333 56.5673 24.3535 55.4166C24.8531 53.3533 25.1545 50.8337 24.5807 48.5323L24.0267 46.3102C23.3935 43.7707 23.516 41.2114 24.2745 38.8307L19.2444 38.3147C18.4689 38.2551 17.8135 37.6599 17.5958 36.787C17.398 35.9934 17.6973 35.1601 18.354 34.7435L38.7127 21.154C39.2102 20.777 39.8072 20.4596 40.5232 20.2811ZM32.6869 53.9289L31.0113 42.1243L43.3183 43.3547C44.2727 43.4539 45.267 43.3746 46.2218 43.1366C47.0969 42.9183 48.0121 42.5216 48.8082 41.9859L59.097 35.1217L63.239 46.3114C63.9513 49.1684 57.8213 53.7313 49.3876 55.8341C40.9539 57.9368 33.3992 56.7859 32.6869 53.9289Z" fill="#FACC15"/>
</svg>
